<?xml version="1.0" encoding="utf-8"?>
<!-- Generator: Adobe Illustrator 22.0.1, SVG Export Plug-In . SVG Version: 6.00 Build 0)  -->
<svg version="1.1" id="Layer_1" xmlns="http://www.w3.org/2000/svg" xmlns:xlink="http://www.w3.org/1999/xlink" x="0px" y="0px"
	 viewBox="0 0 51.8 42.1" style="enable-background:new 0 0 51.8 42.1;" xml:space="preserve">
<style type="text/css">
	.st0{fill:#25ADE8;}
</style>
<title>twitter</title>
<path class="st0" d="M51.8,5c-1.4,2.1-3.2,4-5.3,5.5v1.4c0,2.9-0.4,5.8-1.3,8.5c-0.9,2.9-2.1,5.6-3.8,8.1c-1.7,2.6-3.7,4.9-6.1,6.9
	c-2.5,2.1-5.4,3.7-8.5,4.8c-3.4,1.2-7,1.8-10.6,1.8c-5.8,0-11.4-1.6-16.3-4.8c0.9,0.1,1.7,0.1,2.6,0.1c4.8,0,9.4-1.6,13.2-4.5
	c-4.5-0.1-8.5-3-9.9-7.4c0.7,0.1,1.3,0.2,2,0.2c0.9,0,1.9-0.1,2.8-0.4c-2.4-0.5-4.6-1.8-6.1-3.7c-1.6-1.9-2.4-4.3-2.4-6.8v-0.1
	c1.5,0.8,3.1,1.3,4.8,1.3c-1.4-1-2.6-2.3-3.5-3.8C2.6,10.8,2.2,9,2.2,7.3c0-1.9,0.5-3.7,1.4-5.3c2.7,3.3,6,5.9,9.7,7.8
	c3.8,1.9,7.9,3,12.2,3.2c-0.2-0.8-0.3-1.6-0.3-2.4c-0.1-2.8,1-5.5,3-7.5c4.1-4.1,10.9-4.1,15,0l0.2,0.2c2.4-0.4,4.7-1.3,6.9-2.5
	c-0.8,2.5-2.4,4.6-4.7,5.8C47.8,6.4,49.8,5.9,51.8,5z"/>
</svg>
